<?xml version="1.0" encoding="UTF-8"?>
<svg id="Layer_1" xmlns="http://www.w3.org/2000/svg" version="1.1" viewBox="0 0 1080 1080">
  <!-- Generator: Adobe Illustrator 29.8.1, SVG Export Plug-In . SVG Version: 2.1.1 Build 2)  -->
  <defs>
    <style>
      .st0 {
        fill: none;
        stroke: #89181a;
        stroke-miterlimit: 10;
        stroke-width: 3px;
      }
    </style>
  </defs>
  <path class="st0" d="M1080.14,194.21l39.84-39.84c128.54,128.54,257.09,257.09,385.63,385.63l-385.63,385.63-39.78-39.78-345.85-345.85c115.26-115.26,230.53-230.53,345.79-345.79"/>
  <path class="st0" d="M990.43,798.12c-31.41,33.93-64.41,62.93-97.41,96.93-1,1-1,2-1,3,66,65,127,128,191.87,191.39"/>
  <path class="st0" d="M1051.37,344.27"/>
  <path class="st0" d="M1425.14,423.24"/>
  <path class="st0" d="M991.72,284.6c-33.14-33.03-67.14-65.03-99.14-99.03,62-63,124-124,186.35-187.41"/>
</svg>